<?xml version="1.0" standalone="no"?><!DOCTYPE svg PUBLIC "-//W3C//DTD SVG 1.1//EN" "http://www.w3.org/Graphics/SVG/1.1/DTD/svg11.dtd"><svg t="1653551501739" class="icon" viewBox="0 0 1024 1024" version="1.1" xmlns="http://www.w3.org/2000/svg" p-id="3209" xmlns:xlink="http://www.w3.org/1999/xlink" width="200" height="200"><defs><style type="text/css">@font-face { font-family: "feedback-iconfont"; src: url("//at.alicdn.com/t/font_1031158_u69w8yhxdu.woff2?t=1630033759944") format("woff2"), url("//at.alicdn.com/t/font_1031158_u69w8yhxdu.woff?t=1630033759944") format("woff"), url("//at.alicdn.com/t/font_1031158_u69w8yhxdu.ttf?t=1630033759944") format("truetype"); }
</style></defs><path d="M849.92 170.666667L256 187.733333c-37.546667 0-68.266667 30.72-68.266667 68.266667v404.48c0 39.253333 30.72 69.973333 66.56 69.973333H477.866667l22.186666 54.613334 32.426667 17.066666c17.066667 8.533333 40.96 5.12 54.613333-8.533333l59.733334-63.146667H870.4c37.546667 0 66.56-30.72 66.56-69.973333V256c1.706667-37.546667-51.2-85.333333-87.04-85.333333z" fill="#bfbfbf" p-id="3210"></path><path d="M820.906667 170.666667H203.093333C167.253333 170.666667 136.533333 203.093333 136.533333 242.346667v414.72c0 39.253333 30.72 71.68 66.56 71.68H426.666667l61.44 64.853333c13.653333 13.653333 34.133333 13.653333 47.786666 0l61.44-64.853333h223.573334c37.546667 0 66.56-32.426667 66.56-71.68V242.346667c0-39.253333-30.72-71.68-66.56-71.68z" fill="#2c2c2c" p-id="3211"></path><path d="M273.066667 554.666667c0 10.24-8.533333 18.773333-20.48 18.773333-20.48 0-29.013333-13.653333-29.013334-25.6l6.826667-165.546667c0-8.533333 6.826667-15.36 15.36-18.773333 8.533333-1.706667 18.773333 0 23.893333 8.533333l87.04 119.466667v-109.226667c0-10.24 10.24-29.013333 20.48-29.013333 11.946667 0 20.48 10.24 20.48 29.013333v172.373334c0 8.533333-6.826667 15.36-15.36 18.773333-8.533333 1.706667-18.773333 0-23.893333-8.533333l-87.04-119.466667v109.226667z m394.24 18.773333c-15.36 0-25.6-11.946667-27.306667-22.186667l-22.186667-167.253333c-1.706667-10.24 1.706667-32.426667 11.946667-34.133333 11.946667-1.706667 30.72 11.946667 30.72 27.306666l17.066667 97.28 17.066666-42.666666c3.413333-6.826667 6.826667-23.893333 15.36-23.893334s20.48 11.946667 25.6 23.893334l17.066667 42.666666 17.066667-97.28c1.706667-10.24 11.946667-29.013333 23.893333-27.306666 11.946667 1.706667 22.186667 22.186667 18.773333 34.133333l-30.72 172.373333c-1.706667 8.533333-10.24 15.36-18.773333 15.36-18.773333 0-27.306667-13.653333-30.72-22.186666l-17.066667-54.613334-25.6 63.146667c-3.413333 11.946667-11.946667 17.066667-22.186666 15.36z m-102.4-170.666667h-95.573334v47.786667l95.573334-8.533333c10.24 0 22.186667 13.653333 18.773333 27.306666 0 10.24-8.533333 18.773333-18.773333 18.773334h-95.573334v47.786666l95.573334-8.533333c10.24 0 22.186667 13.653333 18.773333 27.306667 0 10.24-8.533333 18.773333-18.773333 18.773333h-114.346667c-10.24 0-27.306667-15.36-27.306667-25.6l6.826667-165.546667c0-10.24 8.533333-18.773333 18.773333-18.773333l110.933334-10.24c10.24 0 25.6 10.24 22.186666 29.013333 1.706667 11.946667-6.826667 20.48-17.066666 20.48z" fill="#DAE9FF" p-id="3212"></path><path d="M261.12 541.013333c0 10.24-8.533333 18.773333-20.48 18.773334s-20.48-8.533333-20.48-18.773334v-170.666666c0-8.533333 6.826667-15.36 15.36-18.773334 8.533333-1.706667 18.773333 0 23.893333 8.533334l87.04 119.466666v-109.226666c0-10.24 8.533333-18.773333 20.48-18.773334s20.48 8.533333 20.48 18.773334v172.373333c0 8.533333-6.826667 15.36-15.36 18.773333-8.533333 1.706667-18.773333 0-23.893333-8.533333l-87.04-119.466667v107.52z m394.24 18.773334c-10.24 0-18.773333-6.826667-18.773333-15.36l-30.72-172.373334c-1.706667-10.24 6.826667-20.48 18.773333-22.186666 11.946667-1.706667 22.186667 5.12 25.6 15.36l17.066667 97.28 17.066666-42.666667c3.413333-6.826667 11.946667-11.946667 20.48-11.946667s17.066667 5.12 20.48 11.946667l17.066667 42.666667 17.066667-97.28c1.706667-10.24 13.653333-17.066667 25.6-15.36 11.946667 1.706667 20.48 11.946667 18.773333 22.186666l-30.72 172.373334c-1.706667 8.533333-10.24 15.36-18.773333 15.36-10.24 0-18.773333-5.12-22.186667-11.946667l-25.6-63.146667-25.6 63.146667c-5.12 8.533333-15.36 13.653333-25.6 11.946667z m-102.4-170.666667h-95.573333v47.786667h95.573333c10.24 0 18.773333 8.533333 18.773333 18.773333 0 10.24-8.533333 18.773333-18.773333 18.773333h-95.573333v47.786667h95.573333c10.24 0 18.773333 8.533333 18.773333 18.773333 0 10.24-8.533333 18.773333-18.773333 18.773334h-114.346667c-10.24 0-18.773333-8.533333-18.773333-18.773334v-170.666666c0-10.24 8.533333-18.773333 18.773333-18.773334h114.346667c10.24 0 18.773333 8.533333 18.773333 18.773334 0 10.24-8.533333 18.773333-18.773333 18.773333z" fill="#FFFFFF" p-id="3213"></path><path d="M153.6 921.6a366.933333 34.133333 0 1 0 733.866667 0 366.933333 34.133333 0 1 0-733.866667 0Z" fill="#dbdbdb" p-id="3214"></path><path d="M856.746667 354.986667a76.8 76.8 0 1 0 153.6 0 76.8 76.8 0 1 0-153.6 0Z" fill="#FFD6C2" p-id="3215"></path><path d="M817.493333 354.986667a76.8 76.8 0 1 0 153.6 0 76.8 76.8 0 1 0-153.6 0Z" fill="#FB560A" p-id="3216"></path></svg>