<?xml version="1.0" standalone="no"?><!DOCTYPE svg PUBLIC "-//W3C//DTD SVG 1.1//EN" "http://www.w3.org/Graphics/SVG/1.1/DTD/svg11.dtd"><svg t="1653551391841" class="icon" viewBox="0 0 1024 1024" version="1.1" xmlns="http://www.w3.org/2000/svg" p-id="1869" xmlns:xlink="http://www.w3.org/1999/xlink" width="200" height="200"><defs><style type="text/css">@font-face { font-family: "feedback-iconfont"; src: url("//at.alicdn.com/t/font_1031158_u69w8yhxdu.woff2?t=1630033759944") format("woff2"), url("//at.alicdn.com/t/font_1031158_u69w8yhxdu.woff?t=1630033759944") format("woff"), url("//at.alicdn.com/t/font_1031158_u69w8yhxdu.ttf?t=1630033759944") format("truetype"); }
</style></defs><path d="M552.8 532.5l-212 391.1-23.7-41.7-0.7-1.2L291 835l-32.1-56.8-65.1 4.2-52 3.3-49.1 3.3 211.8-391.1L516.9 513z" fill="#50E6CC" p-id="1870"></path><path d="M380.2 438.8L193.8 782.4l-52 3.3 199.4-367.9zM516.1 512.6l-199.7 368-25.4-45.5 186.1-343.8z" fill="#00B794" p-id="1871"></path><path d="M683.9 923.4l81.6-145.5L932 788.8 719.7 397.7 471.6 532.3z" fill="#F3A333" p-id="1872"></path><path d="M931.6 789l-48.3-3.2-1.1-0.1-52-3.3-65.1-4.2-31.9 56.8-25.6 45.7-24.2 42.9-212-391.1 212.3-115.2 35.8-19.4z" fill="#50E6CC" p-id="1873"></path><path d="M644 438.8l186.2 343.6 52 3.3L683 417.8zM508.1 512.6l199.5 368 25.6-45.5-186.3-343.8z" fill="#00B794" p-id="1874"></path><path d="M511.9 405.9m-305.5 0a305.5 305.5 0 1 0 611 0 305.5 305.5 0 1 0-611 0Z" fill="#FDF17F" p-id="1875"></path><path d="M511.9 150.9c-140.8 0-254.8 114.2-254.8 254.8s114 255 254.8 255 254.8-114.2 254.8-254.8-113.8-255-254.8-255z m0 454.6c-110.2 0-199.9-89.4-199.9-199.9S401.4 206 511.9 206c110.2 0 199.9 89.4 199.9 199.9s-89.7 199.6-199.9 199.6z" fill="#FFA300" p-id="1876"></path><path d="M554.6 555.1H488V335h-45.5l4-54.5h108.2l-0.1 274.6z" fill="#D30032" p-id="1877"></path><path d="M288.6 614.3c2.9 3.1 3.5 7.8 1.5 11.6l-87.5 161.2c-1.6 3-4.7 5-8.2 5.2l-52 3.3c-0.2 0.1-0.4 0.1-0.6 0.1-3.4 0-6.6-1.7-8.4-4.6-2-3.1-2.1-7-0.4-10.2L242.4 579c1.7-3.1 4.8-5 8.3-5.2s6.8 1.5 8.8 4.3l1.5 8.5-101.8 187.9 28.4-1.8 89.5-165 11.5 6.6zM414.8 695.8c2.8 0.9 5.1 3.1 6.1 5.8s0.9 5.8-0.5 8.4l-95.2 175.4c-1.7 3.2-5.1 5.2-8.8 5.2-3.6 0-7-2-8.7-5.1L282.3 840c-1.7-3.1-1.7-6.8 0.1-9.8l79.4-146.7c2.6-4.8 8.5-6.6 13.3-4.2l6.4 9.5L302.4 835l13.9 24.8 88.9-164h9.6zM291 835zM748.9 611.2l87.5 161.6 28.5 1.8-100.3-185.1-0.1-11.6c2-2.9 5.3-4.5 8.8-4.3s6.6 2.2 8.3 5.2L891 780.9c1.7 3.2 1.6 7.1-0.4 10.1-1.8 3-5 4.7-8.4 4.7h-0.6l-52-3.3c-3.4-0.2-6.5-2.2-8.2-5.2l-87.5-161.4c-2-3.8-1.5-8.4 1.5-11.6l13.5-3zM649 679.2c4.8-2.4 10.7-0.6 13.3 4.2l79.7 147c1.6 3 1.7 6.7 0 9.7l-25.6 45.5c-1.9 3.1-5.2 5-8.8 5 0 0-0.1 0 0 0-3.7 0-7.1-2-8.8-5.2l-95.1-175.5c-1.4-2.6-1.6-5.7-0.5-8.4s3.3-4.9 6.1-5.8L620 698l87.7 161.9 14-24.9-78.4-144.7 5.7-11.1z" fill="#007982" p-id="1878"></path><path d="M579.1 710.4L683.6 903l15.3-27.2 25.6-45.6c0-0.1 0.1-0.1 0.1-0.2l31.8-56.7c1.9-3.4 5.5-5.3 9.4-5.1l65.1 4.2 52 3.3h0.3l1 0.1 30.1 2L788.4 546l-0.3-9.2c1.6-3.4 5-5.6 8.8-5.7 3.8-0.1 7.3 1.9 9.1 5.2l134.4 247.9c1.7 3.2 1.6 7.1-0.4 10.2-2 3.1-5.5 4.8-9.1 4.6l-48.3-3.2h-0.2l-1-0.1-51.9-3.3-58.8-3.8-28.8 51.3c0 0.1-0.1 0.1-0.1 0.2l-25.5 45.5-24.2 42.9c-1.8 3.2-5.1 5.1-8.7 5.1 0 0-0.1 0 0 0-3.7 0-7.1-2-8.8-5.2L562 720.7c-1.5-2.8-1.6-6.2-0.2-9.1 1.4-2.9 4-4.9 7.2-5.5l10.1 4.3zM236.1 545.1l-126 232.7 31-2.1 52-3.3 65.1-4.2c3.8-0.2 7.5 1.7 9.4 5.1l32.1 56.7c0 0.1 0.1 0.1 0.1 0.2l25.3 45.6 0.6 1.1s0 0.1 0.1 0.1l14.8 26 105.7-195 8.9-1.8c3.1 0.6 5.8 2.6 7.2 5.5s1.3 6.3-0.2 9.1L349.6 928.4c-1.7 3.2-5.1 5.2-8.7 5.2h-0.1c-3.6 0-6.9-1.9-8.7-5.1l-24.3-42.8c0-0.1-0.1-0.1-0.1-0.2L282.4 840s0-0.1-0.1-0.1l-29-51.3-58.8 3.8-52 3.3-49.1 3.3c-3.6 0.2-7.1-1.5-9.1-4.6s-2.1-7-0.4-10.2L218 536.6c1.8-3.3 5.3-5.4 9.1-5.2 3.8 0.1 7.2 2.3 8.8 5.7l0.2 8z" fill="#00B794" p-id="1879"></path><path d="M511.9 721.4c-84.3 0-163.5-32.8-223.1-92.4-59.6-59.6-92.4-138.8-92.4-223.1s32.8-163.5 92.4-223.1 138.8-92.4 223.1-92.4 163.5 32.8 223.1 92.4 92.4 138.8 92.4 223.1S794.6 569.4 735 629s-138.8 92.4-223.1 92.4z m0-611c-78.9 0-153.1 30.7-209 86.5s-86.5 130-86.5 209 30.7 153.1 86.5 209c55.8 55.8 130 86.5 209 86.5s153.1-30.7 209-86.5c55.8-55.8 86.5-130 86.5-209s-30.7-153.1-86.5-209c-55.9-55.8-130.1-86.5-209-86.5z" fill="#FFA300" p-id="1880"></path><path d="M511.9 670.7c-146 0-264.8-118.9-264.8-265 0-70.7 27.5-137.2 77.5-187.2s116.5-77.6 187.3-77.6 137.3 27.6 187.4 77.7c49.9 50.1 77.4 116.6 77.4 187.3s-27.5 137.2-77.5 187.2-116.6 77.6-187.3 77.6z m0-509.8c-65.4 0-126.9 25.5-173.1 71.7s-71.7 107.7-71.7 173.1c0 135.1 109.8 245 244.8 245 65.4 0 126.9-25.5 173.1-71.7s71.7-107.7 71.7-173.1-25.4-126.9-71.6-173.2c-46.2-46.3-107.7-71.8-173.2-71.8z m0 454.6c-115.7 0-209.9-94.2-209.9-209.9 0-56.1 21.8-108.8 61.4-148.3S455.7 196 511.9 196c115.7 0 209.9 94.2 209.9 209.9 0 56.1-21.9 108.7-61.6 148.3-39.6 39.5-92.3 61.3-148.3 61.3z m0-399.5c-50.8 0-98.5 19.7-134.3 55.4-35.8 35.8-55.6 83.4-55.6 134.2 0 104.7 85.2 189.9 189.9 189.9 50.7 0 98.3-19.7 134.2-55.4 35.9-35.8 55.7-83.4 55.7-134.2 0-104.7-85.2-189.9-189.9-189.9z" fill="#FF7900" p-id="1881"></path><path d="M564.6 565.1H478V345h-46.3l5.5-74.5h127.5l-0.1 294.6z m-66.6-20h46.6l0.1-254.6h-88.9l-2.5 34.5H498v220.1z" fill="#AA0404" p-id="1882"></path></svg>